<?xml version="1.0" standalone="no"?><!-- Generator: Gravit.io --><svg xmlns="http://www.w3.org/2000/svg" xmlns:xlink="http://www.w3.org/1999/xlink" style="isolation:isolate" viewBox="0 0 100 100" width="100" height="100"><defs><clipPath id="_clipPath_tMsyyKI9p1DmDzuRseVifs5hmHENO9hT"><rect width="100" height="100"/></clipPath></defs><g clip-path="url(#_clipPath_tMsyyKI9p1DmDzuRseVifs5hmHENO9hT)"><path d=" M 15.714 7.143 L 84.286 7.143 C 89.016 7.143 92.857 10.984 92.857 15.714 L 92.857 84.286 C 92.857 89.016 89.016 92.857 84.286 92.857 L 15.714 92.857 C 10.984 92.857 7.143 89.016 7.143 84.286 L 7.143 15.714 C 7.143 10.984 10.984 7.143 15.714 7.143 L 15.714 7.143 Z  M 7.143 0 L 92.857 0 C 96.799 0 100 3.201 100 7.143 L 100 92.857 C 100 96.799 96.799 100 92.857 100 L 7.143 100 C 3.201 100 0 96.799 0 92.857 L 0 7.143 C 0 3.201 3.201 0 7.143 0 L 7.143 0 Z  M 35.714 50 C 35.714 42.115 42.115 35.714 50 35.714 C 57.885 35.714 64.286 42.115 64.286 50 C 64.286 57.885 57.885 64.286 50 64.286 C 42.115 64.286 35.714 57.885 35.714 50 Z " fill-rule="evenodd" fill="rgb(0,0,0)"/></g></svg>