<?xml version="1.0" standalone="no"?><!-- Generator: Gravit.io --><svg xmlns="http://www.w3.org/2000/svg" xmlns:xlink="http://www.w3.org/1999/xlink" style="isolation:isolate" viewBox="0 0 100 100" width="100" height="100"><defs><clipPath id="_clipPath_QV3V5jDbd5jZVhDgDV9UGimgPGBc1n3f"><rect width="100" height="100"/></clipPath></defs><g clip-path="url(#_clipPath_QV3V5jDbd5jZVhDgDV9UGimgPGBc1n3f)"><path d=" M 14.286 21.429 C 14.286 17.486 17.486 14.286 21.429 14.286 C 25.371 14.286 28.571 17.486 28.571 21.429 C 28.571 25.371 25.371 28.571 21.429 28.571 C 17.486 28.571 14.286 25.371 14.286 21.429 L 14.286 21.429 L 14.286 21.429 L 14.286 21.429 L 14.286 21.429 L 14.286 21.429 Z  M 71.429 78.571 C 71.429 74.629 74.629 71.429 78.571 71.429 C 82.514 71.429 85.714 74.629 85.714 78.571 C 85.714 82.514 82.514 85.714 78.571 85.714 C 74.629 85.714 71.429 82.514 71.429 78.571 L 71.429 78.571 L 71.429 78.571 L 71.429 78.571 L 71.429 78.571 Z  M 71.429 21.429 C 71.429 17.486 74.629 14.286 78.571 14.286 C 82.514 14.286 85.714 17.486 85.714 21.429 C 85.714 25.371 82.514 28.571 78.571 28.571 C 74.629 28.571 71.429 25.371 71.429 21.429 L 71.429 21.429 L 71.429 21.429 L 71.429 21.429 Z  M 14.286 50 C 14.286 46.058 17.486 42.857 21.429 42.857 C 25.371 42.857 28.571 46.058 28.571 50 C 28.571 53.942 25.371 57.143 21.429 57.143 C 17.486 57.143 14.286 53.942 14.286 50 L 14.286 50 L 14.286 50 Z  M 14.286 78.571 C 14.286 74.629 17.486 71.429 21.429 71.429 C 25.371 71.429 28.571 74.629 28.571 78.571 C 28.571 82.514 25.371 85.714 21.429 85.714 C 17.486 85.714 14.286 82.514 14.286 78.571 L 14.286 78.571 Z  M 15.714 7.143 L 84.286 7.143 C 89.016 7.143 92.857 10.984 92.857 15.714 L 92.857 84.286 C 92.857 89.016 89.016 92.857 84.286 92.857 L 15.714 92.857 C 10.984 92.857 7.143 89.016 7.143 84.286 L 7.143 15.714 C 7.143 10.984 10.984 7.143 15.714 7.143 L 15.714 7.143 L 15.714 7.143 L 15.714 7.143 L 15.714 7.143 L 15.714 7.143 L 15.714 7.143 Z  M 7.143 0 L 92.857 0 C 96.799 0 100 3.201 100 7.143 L 100 92.857 C 100 96.799 96.799 100 92.857 100 L 7.143 100 C 3.201 100 0 96.799 0 92.857 L 0 7.143 C 0 3.201 3.201 0 7.143 0 L 7.143 0 L 7.143 0 L 7.143 0 L 7.143 0 L 7.143 0 L 7.143 0 Z  M 71.429 50 C 71.429 46.058 74.629 42.857 78.571 42.857 C 82.514 42.857 85.714 46.058 85.714 50 C 85.714 53.942 82.514 57.143 78.571 57.143 C 74.629 57.143 71.429 53.942 71.429 50 Z " fill-rule="evenodd" fill="rgb(0,0,0)"/></g></svg>