<?xml version="1.0" encoding="UTF-8" standalone="no"?><!-- Generator: Gravit.io --><svg xmlns="http://www.w3.org/2000/svg" xmlns:xlink="http://www.w3.org/1999/xlink" style="isolation:isolate" viewBox="0 0 320 160" width="320pt" height="160pt"><defs><clipPath id="_clipPath_iVFFnQJytCbUAjN1VoVREwFzgdgHpHvV"><rect width="320" height="160"/></clipPath></defs><g clip-path="url(#_clipPath_iVFFnQJytCbUAjN1VoVREwFzgdgHpHvV)"><rect width="320" height="160" style="fill:rgb(250,92,92)" fill-opacity="0"/><path d=" M 317.5 160.84 L 317.5 160.84 C 318.88 160.84 320 159.72 320 158.34 L 320 150.84 L 315 150.84 L 315 155.84 L 315 155.84 L 310 155.84 L 310 160.84 L 317.5 160.84 Z " fill="rgb(235,235,235)"/><g><path d=" M 0 0 L 160 0 L 160 160 L 0 160 L 0 0 Z " fill="rgb(0,0,0)"/><path d=" M 15 15 L 15 30 L 5 30 L 5 5 L 30 5 L 30 15 L 15 15 Z " fill="rgb(235,235,235)"/><path d=" M 15 145 L 15 130 L 5 130 L 5 145 L 5 145 L 5 155 L 30 155 L 30 145 L 15 145 Z " fill="rgb(235,235,235)"/><rect x="160" y="0" width="160" height="160" transform="matrix(1,0,0,1,0,0)" fill="rgb(235,235,235)"/><path d=" M 305 15 L 305 30 L 315 30 L 315 15 L 315 15 L 315 5 L 290 5 L 290 15 L 305 15 Z " fill="rgb(0,0,0)"/><path d=" M 305 145 L 305 130 L 315 130 L 315 145 L 315 145 L 315 155 L 290 155 L 290 145 L 305 145 Z " fill="rgb(0,0,0)"/><path d=" M 143 110 L 143 100 L 163 100 L 163 150 L 153 150 L 153 110 L 143 110 Z " fill="rgb(255,255,255)"/><path d=" M 93 100 L 123 100 L 133 100 L 133 110 L 133 120 L 123 120 L 123 110 L 103 110 L 103 140 L 123 140 L 123 130 L 133 130 L 133 150 L 103 150 L 103 140 L 93 140 L 93 100 Z " fill="rgb(255,255,255)"/><path d=" M 183 140 L 183 150 L 163 150 L 163 100 L 173 100 L 173 140 L 183 140 Z " fill="rgb(0,0,0)"/><path d=" M 203 150 L 233 150 L 233 120 L 213 120 L 213 130 L 223 130 L 223 140 L 203 140 L 203 110 L 233 110 L 233 100 L 203 100 L 203 110 L 193 110 L 193 140 L 203 140 L 203 150 Z " fill="rgb(0,0,0)"/></g><g><g><path d=" M 160 45 L 174 45 L 174 47 L 200 47 L 200 41 L 198 41 L 198 37 L 166 37 L 166 39 L 160 39 L 160 45 Z " fill="rgb(0,0,0)"/><path d=" M 160 45 L 146 45 L 146 47 L 120 47 L 120 41 L 122 41 L 122 37 L 154 37 L 154 39 L 160 39 L 160 45 Z " fill="rgb(255,255,255)"/><path d=" M 196 47 L 196 67 L 194 67 L 194 75 L 192 75 L 192 81 L 190 81 L 190 85 L 188 85 L 188 87 L 186 87 L 186 89 L 180 89 L 180 91 L 172 91 L 172 93 L 160 93 L 160 91 L 170 91 L 170 89 L 178 89 L 178 87 L 182 87 L 182 85 L 186 85 L 186 81 L 188 81 L 188 75 L 190 75 L 190 65 L 192 65 L 192 57 L 194 57 L 194 55 L 192 55 L 192 53 L 194 53 L 194 51 L 192 51 L 192 47 L 196 47 Z " fill="rgb(0,0,0)"/><path d=" M 124 47 L 124 67 L 126 67 L 126 75 L 128 75 L 128 79 L 130 79 L 130 81 L 132 81 L 132 85 L 134 85 L 134 87 L 136 87 L 136 89 L 140 89 L 140 91 L 148 91 L 148 93 L 160 93 L 160 91 L 150 91 L 150 89 L 142 89 L 142 87 L 138 87 L 138 85 L 136 85 L 136 83 L 134 83 L 134 79 L 132 79 L 132 75 L 130 75 L 130 65 L 128 65 L 128 57 L 126 57 L 126 55 L 128 55 L 128 53 L 126 53 L 126 51 L 128 51 L 128 47 L 124 47 Z " fill="rgb(255,255,255)"/><path d=" M 160 77 L 164 77 L 164 75 L 166 75 L 166 69 L 164 69 L 164 67 L 160 67 L 160 77 Z " fill="rgb(0,0,0)" vector-effect="non-scaling-stroke" stroke-width="1" stroke="rgb(0,0,0)" stroke-linejoin="miter" stroke-linecap="square" stroke-miterlimit="3"/><path d=" M 160 77 L 156 77 L 156 75 L 154 75 L 154 69 L 156 69 L 156 67 L 160 67 L 160 77 Z " fill="rgb(255,255,255)" vector-effect="non-scaling-stroke" stroke-width="1" stroke="rgb(0,0,0)" stroke-linejoin="miter" stroke-linecap="square" stroke-miterlimit="3"/><path d=" M 192 21 L 188 21 L 188 17 L 186 17 L 186 13 L 178 13 L 178 11 L 168 11 L 168 13 L 160 13 L 160 9 L 168 9 L 168 5 L 182 5 L 182 7 L 192 7 L 192 9 L 200 9 L 200 11 L 202 11 L 202 13 L 206 13 L 206 17 L 208 17 L 208 21 L 210 21 L 210 41 L 208 41 L 208 45 L 206 45 L 206 43 L 204 43 L 204 37 L 202 37 L 202 33 L 200 33 L 200 29 L 196 29 L 196 37 L 194 37 L 194 27 L 192 27 L 192 21 Z " fill="rgb(0,0,0)"/><g><g><path d=" M 176 61 L 174 61 L 174 57 L 176 57 L 176 61 Z " fill="rgb(0,0,0)"/><path d=" M 174 61 L 174 63 L 176 63 L 176 61 L 174 61 Z " fill="rgb(0,0,0)"/><path d=" M 166 61 L 166 63 L 168 63 L 168 61 L 166 61 Z " fill="rgb(0,0,0)"/><path d=" M 172 63 L 170.025 63 L 168 63 L 168 65 L 170 65 L 172 65 L 174 65 L 174 63 L 172 63 Z " fill="rgb(0,0,0)"/><path d=" M 172 55 L 170.025 55 L 168 55 L 168 57 L 170 57 L 172 57 L 174 57 L 174 55 L 172 55 Z " fill="rgb(0,0,0)"/><path d=" M 168 57 L 168 57 L 172 57 L 172 59 L 174 59 L 174 57 L 174 57 L 174 63 L 168 63 L 168 61 L 166 61 L 166 57 L 168 57 Z " fill-rule="evenodd" fill="rgb(0,0,0)"/></g><g><rect x="142" y="58" width="10" height="2" transform="matrix(1,0,0,1,0,0)" fill="rgb(255,255,255)"/><path d=" M 140 58 L 140 56 L 150 56 L 150 58 L 140 58 Z " fill="rgb(255,255,255)"/><path d=" M 144 62 L 144 60 L 150 60 L 150 62 L 144 62 Z " fill="rgb(255,255,255)"/><path d=" M 146 64 L 146 66 L 148 66 L 148 64 L 146 64 Z " fill="rgb(255,255,255)"/><path d=" M 146 52 L 146 54 L 148 54 L 148 52 L 146 52 Z " fill="rgb(255,255,255)"/><path d=" M 148 70 L 148 68 L 146 68 L 146.025 70 L 144 70 L 144 72 L 146 72 L 146 74 L 148 74 L 148 72 L 150 72 L 150 70 L 148 70 Z " fill="rgb(255,255,255)"/></g></g><path d=" M 160 81 L 160 87 L 154 87 L 154 85 L 146 85 L 146 83 L 140 83 L 140 81 L 138 81 L 138 75 L 140 75 L 140 77 L 142 77 L 142 79 L 148 79 L 148 81 L 160 81 Z " fill="rgb(255,255,255)"/><path d=" M 160 81 L 160 87 L 166 87 L 166 85 L 174 85 L 174 83 L 180 83 L 180 81 L 182 81 L 182 75 L 180 75 L 180 77 L 178 77 L 178 79 L 172 79 L 172 81 L 160 81 Z " fill="rgb(0,0,0)"/><path d=" M 186 33 L 186 25 L 188 25 L 188 33 L 186 33 Z " fill="rgb(0,0,0)"/><path d=" M 186 23 L 186 19 L 182 19 L 182 21 L 184 21 L 184 23 L 186 23 Z " fill="rgb(0,0,0)"/><path d=" M 180 17 L 180 15 L 176 15 L 176 17 L 180 17 Z " fill="rgb(0,0,0)"/><path d=" M 174 17 L 174 15 L 172 15 L 172 17 L 174 17 Z " fill="rgb(0,0,0)"/><path d=" M 202 53 L 202 59 L 204 59 L 204 61 L 210 61 L 210 59 L 212 59 L 212 53 L 210 53 L 210 51 L 204 51 L 204 53 L 202 53 Z " fill="rgb(0,0,0)" vector-effect="non-scaling-stroke" stroke-width="1" stroke="rgb(0,0,0)" stroke-linejoin="miter" stroke-linecap="square" stroke-miterlimit="3"/></g><path d=" M 202 43 L 202 47 L 204 47 L 204 43 L 202 43 Z " fill="rgb(0,0,0)"/><path d=" M 204 49 L 204 47 L 208 47 L 208 49 L 204 49 Z " fill="rgb(0,0,0)"/><path d=" M 210 47 L 208 47 L 208 45 L 210 45 L 210 41 L 212 41 L 212 45 L 210 45 L 210 47 Z " fill="rgb(0,0,0)"/><path d=" M 128 21 L 132 21 L 132 17 L 134 17 L 134 13 L 142 13 L 142 11 L 152 11 L 152 13 L 160 13 L 160 9 L 152 9 L 152 5 L 138 5 L 138 7 L 128 7 L 128 9 L 120 9 L 120 11 L 118 11 L 118 13 L 114 13 L 114 17 L 112 17 L 112 21 L 110 21 L 110 41 L 112 41 L 112 45 L 114 45 L 114 43 L 116 43 L 116 37 L 118 37 L 118 33 L 120 33 L 120 29 L 124 29 L 124 37 L 126 37 L 126 27 L 128 27 L 128 21 Z " fill="rgb(255,255,255)"/><path d=" M 134 33 L 134 25 L 132 25 L 132 33 L 134 33 Z " fill="rgb(255,255,255)"/><path d=" M 134 23 L 134 19 L 138 19 L 138 21 L 136 21 L 136 23 L 134 23 Z " fill="rgb(255,255,255)"/><path d=" M 140 17 L 140 15 L 144 15 L 144 17 L 140 17 Z " fill="rgb(255,255,255)"/><path d=" M 146 17 L 146 15 L 148 15 L 148 17 L 146 17 Z " fill="rgb(255,255,255)"/><path d=" M 118 53 L 118 59 L 116 59 L 116 61 L 110 61 L 110 59 L 108 59 L 108 53 L 110 53 L 110 51 L 116 51 L 116 53 L 118 53 Z " fill="rgb(255,255,255)"/><path d=" M 118 43 L 118 47 L 116 47 L 116 43 L 118 43 Z " fill="rgb(255,255,255)"/><path d=" M 116 49 L 116 47 L 112 47 L 112 49 L 116 49 Z " fill="rgb(255,255,255)"/><path d=" M 110 47 L 112 47 L 112 45 L 110 45 L 110 41 L 108 41 L 108 45 L 110 45 L 110 47 Z " fill="rgb(255,255,255)"/></g></g></svg>