<?xml version="1.0" encoding="UTF-8" standalone="no"?><!-- Generator: Gravit.io --><svg xmlns="http://www.w3.org/2000/svg" xmlns:xlink="http://www.w3.org/1999/xlink" style="isolation:isolate" viewBox="0 0 320 160" width="320pt" height="160pt"><defs><clipPath id="_clipPath_qcxANY1sf8Nm9NOV7q1debcH7Y0o0RPm"><rect width="320" height="160"/></clipPath></defs><g clip-path="url(#_clipPath_qcxANY1sf8Nm9NOV7q1debcH7Y0o0RPm)"><rect width="320" height="160" style="fill:rgb(250,92,92)" fill-opacity="0"/><rect x="0" y="0" width="320" height="160" transform="matrix(1,0,0,1,0,0)" fill="rgb(255,0,0)"/><rect x="0" y="0" width="5" height="5" transform="matrix(1,0,0,1,0,0)" fill="rgb(255,0,0)"/><rect x="0" y="0" width="5" height="5" transform="matrix(1,0,0,1,0,0)" fill="rgb(255,0,0)"/><path d=" M 100 60 L 100 90 C 100 95.519 95.519 100 90 100 L 60 100 L 60 80 L 80 80 L 80 60 L 100 60 Z " fill="rgb(235,235,235)"/><path d=" M 30 20 L 30 20 C 24.481 20 20 24.481 20 30 L 20 60 L 40 60 L 40 40 L 40 40 L 60 40 L 60 20 L 30 20 Z " fill="rgb(235,235,235)"/><path d=" M 317.5 160.84 L 317.5 160.84 C 318.88 160.84 320 159.72 320 158.34 L 320 150.84 L 315 150.84 L 315 155.84 L 315 155.84 L 310 155.84 L 310 160.84 L 317.5 160.84 Z " fill="rgb(235,235,235)"/><path d=" M 2.5 0 L 2.5 0 C 1.12 0 0 1.12 0 2.5 L 0 10 L 5 10 L 5 5 L 5 5 L 10 5 L 10 0 L 2.5 0 Z " fill="rgb(235,235,235)"/><path d=" M 217.42 81.551 L 217.42 81.551 Q 218.62 86.765 220.36 89.807 L 220.36 89.807 L 220.36 89.807 Q 222.1 92.848 224.14 92.848 L 224.14 92.848 L 224.14 92.848 Q 226.18 92.848 227.24 89.372 L 227.24 89.372 L 227.24 89.372 Q 228.3 85.896 228.3 80.931 L 228.3 80.931 L 228.3 80.931 Q 228.3 75.965 227.02 71.993 L 227.02 71.993 L 227.02 71.993 Q 225.74 68.02 223.92 65.165 L 223.92 65.165 L 223.92 65.165 Q 222.1 62.31 220.3 59.144 L 220.3 59.144 L 220.3 59.144 Q 218.5 55.979 217.22 50.641 L 217.22 50.641 L 217.22 50.641 Q 215.94 45.303 215.94 37.234 L 215.94 37.234 L 215.94 37.234 Q 215.94 29.165 217.8 23.392 L 217.8 23.392 L 217.8 23.392 Q 219.66 17.62 223.62 17.62 L 223.62 17.62 L 223.62 17.62 Q 227.58 17.62 229.44 23.703 L 229.44 23.703 L 229.44 23.703 Q 231.3 29.785 231.3 39.592 L 231.3 39.592 L 231.3 39.592 Q 231.3 41.082 231.18 42.696 L 231.18 42.696 L 231.18 42.696 Q 230.14 43.813 229.1 43.813 L 229.1 43.813 L 229.1 43.813 Q 228.06 43.813 227.58 43.565 L 227.58 43.565 L 227.58 43.565 Q 227.62 42.572 227.62 40.958 L 227.62 40.958 L 227.62 40.958 Q 227.62 33.758 226.4 29.351 L 226.4 29.351 L 226.4 29.351 Q 225.18 24.944 223.34 24.944 L 223.34 24.944 L 223.34 24.944 Q 221.5 24.944 220.44 27.985 L 220.44 27.985 L 220.44 27.985 Q 219.38 31.027 219.38 36.551 L 219.38 36.551 L 219.38 36.551 Q 219.38 42.075 220.64 46.11 L 220.64 46.11 L 220.64 46.11 Q 221.9 50.144 223.72 53.124 L 223.72 53.124 L 223.72 53.124 Q 225.54 56.103 227.36 59.393 L 227.36 59.393 L 227.36 59.393 Q 229.18 62.682 230.44 68.206 L 230.44 68.206 L 230.44 68.206 Q 231.7 73.731 231.7 81.862 L 231.7 81.862 L 231.7 81.862 Q 231.7 89.993 229.56 95.393 L 229.56 95.393 L 229.56 95.393 Q 227.42 100.793 224.3 100.793 L 224.3 100.793 L 224.3 100.793 Q 218.66 100.793 215.42 91.358 L 215.42 91.358 L 215.42 91.358 Q 215.58 88.379 216.08 85.896 L 216.08 85.896 L 216.08 85.896 Q 216.58 83.413 217.02 82.544 L 217.02 82.544 L 217.42 81.551 Z  M 235.58 78.82 L 235.58 78.82 L 235.58 78.82 Q 235.58 78.82 235.66 51.137 L 235.66 51.137 L 235.66 51.137 Q 235.66 49.275 235.62 48.282 L 235.62 48.282 L 235.62 48.282 Q 233.94 48.282 233.22 48.406 L 233.22 48.406 L 233.22 48.406 Q 232.98 46.42 232.98 44.496 L 232.98 44.496 L 232.98 44.496 Q 232.98 42.572 233.06 41.579 L 233.06 41.579 L 235.5 41.579 L 235.3 32.392 L 235.3 32.392 Q 236.3 31.399 237.4 31.399 L 237.4 31.399 L 237.4 31.399 Q 238.5 31.399 239.22 31.896 L 239.22 31.896 L 238.86 41.454 L 238.86 41.454 Q 241.06 41.33 243.3 40.71 L 243.3 40.71 L 243.3 40.71 Q 243.54 42.323 243.54 44.248 L 243.54 44.248 L 243.54 44.248 Q 243.54 46.172 243.38 48.903 L 243.38 48.903 L 243.38 48.903 Q 241.9 48.655 238.7 48.406 L 238.7 48.406 L 238.7 48.406 Q 238.62 50.889 238.62 55.73 L 238.62 55.73 L 238.62 80.931 L 238.62 80.931 Q 238.62 84.158 238.72 86.207 L 238.72 86.207 L 238.72 86.207 Q 238.82 88.255 239.24 89.931 L 239.24 89.931 L 239.24 89.931 Q 239.66 91.607 240.46 91.607 L 240.46 91.607 L 240.46 91.607 Q 242.22 91.607 243.82 87.758 L 243.82 87.758 L 243.82 87.758 Q 244.66 91.482 244.66 97.814 L 244.66 97.814 L 244.66 97.814 Q 242.46 100.793 240.84 100.793 L 240.84 100.793 L 240.84 100.793 Q 239.22 100.793 238.26 99.489 L 238.26 99.489 L 238.26 99.489 Q 237.3 98.186 236.78 96.386 L 236.78 96.386 L 236.78 96.386 Q 236.26 94.586 235.98 91.358 L 235.98 91.358 L 235.98 91.358 Q 235.58 86.765 235.58 78.82 Z  M 246.66 69.51 L 246.66 69.51 Q 246.66 39.592 254.18 39.592 L 254.18 39.592 L 254.18 39.592 Q 261.7 39.592 261.7 69.51 L 261.7 69.51 L 261.7 69.51 Q 261.7 83.289 260.3 91.358 L 260.3 91.358 L 260.3 91.358 Q 258.7 100.793 254.18 100.793 L 254.18 100.793 L 254.18 100.793 Q 249.66 100.793 248.06 91.358 L 248.06 91.358 L 248.06 91.358 Q 246.66 83.289 246.66 69.51 L 246.66 69.51 Z  M 249.94 69.2 L 249.94 69.2 L 249.94 69.2 Q 249.94 91.855 254.18 91.855 L 254.18 91.855 L 254.18 91.855 Q 258.42 91.855 258.42 69.2 L 258.42 69.2 L 258.42 69.2 Q 258.42 46.544 254.18 46.544 L 254.18 46.544 L 254.18 46.544 Q 249.94 46.544 249.94 69.2 Z  M 272.66 39.592 L 272.66 39.592 L 272.66 39.592 Q 275.22 39.592 277.04 43.565 L 277.04 43.565 L 277.04 43.565 Q 278.86 47.537 278.86 55.11 L 278.86 55.11 L 278.86 55.11 Q 278.86 55.979 278.78 57.965 L 278.78 57.965 L 278.78 57.965 Q 277.74 58.958 276.98 58.958 L 276.98 58.958 L 276.98 58.958 Q 276.22 58.958 275.34 58.71 L 275.34 58.71 L 275.34 58.71 Q 275.38 57.841 275.38 56.351 L 275.38 56.351 L 275.38 56.351 Q 275.38 52.255 274.6 49.399 L 274.6 49.399 L 274.6 49.399 Q 273.82 46.544 272.38 46.544 L 272.38 46.544 L 272.38 46.544 Q 268.58 46.544 268.58 69.2 L 268.58 69.2 L 268.58 69.2 Q 268.58 91.855 272.74 91.855 L 272.74 91.855 L 272.74 91.855 Q 274.74 91.855 277.62 84.158 L 277.62 84.158 L 277.62 84.158 Q 278.78 87.882 279.1 93.965 L 279.1 93.965 L 279.1 93.965 Q 275.78 100.793 272.46 100.793 L 272.46 100.793 L 272.46 100.793 Q 268.42 100.793 266.86 92.289 L 266.86 92.289 L 266.86 92.289 Q 265.3 83.786 265.3 69.82 L 265.3 69.82 L 265.3 69.82 Q 265.3 55.855 267.02 47.723 L 267.02 47.723 L 267.02 47.723 Q 268.74 39.592 272.66 39.592 Z  M 283.82 99.179 L 283.82 99.179 L 283.82 99.179 Q 284.42 83.041 284.42 60.882 L 284.42 60.882 L 284.42 60.882 Q 284.42 38.723 284.3 31.523 L 284.3 31.523 L 284.3 31.523 Q 284.18 24.323 283.7 15.509 L 283.7 15.509 L 283.7 15.509 Q 284.74 14.268 285.78 14.268 L 285.78 14.268 L 285.78 14.268 Q 286.82 14.268 287.94 14.516 L 287.94 14.516 L 287.94 14.516 Q 287.34 29.785 287.34 60.199 L 287.34 60.199 L 287.34 60.199 Q 287.34 90.613 288.06 98.186 L 288.06 98.186 L 288.06 98.186 Q 286.74 99.427 285.96 99.427 L 285.96 99.427 L 285.96 99.427 Q 285.18 99.427 283.82 99.179 Z  M 293.94 40.958 L 293.94 40.958 L 293.94 40.958 Q 294.3 40.71 295.48 40.71 L 295.48 40.71 L 295.48 40.71 Q 296.66 40.71 298.06 42.696 L 298.06 42.696 L 298.06 42.696 Q 297.5 45.675 294.94 54.613 L 294.94 54.613 L 294.94 54.613 Q 292.38 63.551 291.42 67.151 L 291.42 67.151 L 291.42 67.151 Q 296.02 87.634 298.94 96.945 L 298.94 96.945 L 298.94 96.945 Q 296.94 100.048 294.1 100.048 L 294.1 100.048 L 294.1 100.048 Q 293.14 91.979 291.9 86.02 L 291.9 86.02 L 291.9 86.02 Q 290.66 80.062 287.98 70.751 L 287.98 70.751 L 288.1 69.51 L 288.1 69.51 Q 289.7 63.551 291.68 54.613 L 291.68 54.613 L 291.68 54.613 Q 293.66 45.675 293.94 40.958 Z  M 109.74 99.676 L 109.74 99.676 L 109.74 99.676 Q 110.3 85.151 110.3 58.337 L 110.3 58.337 L 110.3 58.337 Q 110.3 31.523 109.62 19.606 L 109.62 19.606 L 109.62 19.606 Q 110.66 18.365 111.7 18.365 L 111.7 18.365 L 111.7 18.365 Q 112.74 18.365 113.86 18.613 L 113.86 18.613 L 113.86 18.613 Q 113.3 32.392 113.3 62.186 L 113.3 62.186 L 113.3 62.186 Q 113.3 91.979 113.98 98.683 L 113.98 98.683 L 113.98 98.683 Q 112.66 99.924 111.54 99.924 L 111.54 99.924 L 111.54 99.924 Q 110.42 99.924 109.74 99.676 Z  M 145.06 57.344 L 145.06 57.344 L 145.02 67.524 L 145.02 67.524 Q 145.02 83.538 145.82 97.814 L 145.82 97.814 L 145.82 97.814 Q 144.5 99.427 143.24 99.427 L 143.24 99.427 L 143.24 99.427 Q 141.98 99.427 141.5 99.179 L 141.5 99.179 L 141.5 99.179 Q 141.98 82.669 141.98 70.068 L 141.98 70.068 L 141.98 70.068 Q 141.98 57.468 141.46 52.503 L 141.46 52.503 L 141.46 52.503 Q 140.94 47.537 139.18 47.537 L 139.18 47.537 L 139.18 47.537 Q 137.42 47.537 135.1 55.73 L 135.1 55.73 L 135.06 67.524 L 135.06 67.524 Q 135.06 83.538 135.86 97.814 L 135.86 97.814 L 135.86 97.814 Q 134.54 99.427 133.28 99.427 L 133.28 99.427 L 133.28 99.427 Q 132.02 99.427 131.54 99.179 L 131.54 99.179 L 131.54 99.179 Q 132.02 82.669 132.02 70.068 L 132.02 70.068 L 132.02 70.068 Q 132.02 57.468 131.5 52.503 L 131.5 52.503 L 131.5 52.503 Q 130.98 47.537 129.22 47.537 L 129.22 47.537 L 129.22 47.537 Q 127.46 47.537 125.18 55.482 L 125.18 55.482 L 125.18 55.482 Q 125.1 59.33 125.1 67.151 L 125.1 67.151 L 125.1 67.151 Q 125.1 87.51 125.82 98.186 L 125.82 98.186 L 125.82 98.186 Q 124.38 99.427 123.22 99.427 L 123.22 99.427 L 123.22 99.427 Q 122.06 99.427 121.58 99.179 L 121.58 99.179 L 121.58 99.179 Q 122.18 82.296 122.18 69.634 L 122.18 69.634 L 122.18 69.634 Q 122.18 56.972 121.38 42.075 L 121.38 42.075 L 121.38 42.075 Q 122.98 40.834 123.9 40.834 L 123.9 40.834 L 123.9 40.834 Q 124.82 40.834 125.34 41.33 L 125.34 41.33 L 125.34 47.661 L 125.34 47.661 Q 126.46 44.061 127.92 41.827 L 127.92 41.827 L 127.92 41.827 Q 129.38 39.592 130.74 39.592 L 130.74 39.592 L 130.74 39.592 Q 134.06 39.592 134.86 49.151 L 134.86 49.151 L 134.86 49.151 Q 136.06 44.806 137.68 42.199 L 137.68 42.199 L 137.68 42.199 Q 139.3 39.592 140.7 39.592 L 140.7 39.592 L 140.7 39.592 Q 142.98 39.592 144.02 43.999 L 144.02 43.999 L 144.02 43.999 Q 145.06 48.406 145.06 57.344 Z  M 157.06 71.744 L 157.06 71.744 L 157.06 71.744 Q 155.62 71.744 154.72 74.165 L 154.72 74.165 L 154.72 74.165 Q 153.82 76.586 153.82 81.675 L 153.82 81.675 L 153.82 81.675 Q 153.82 91.855 156.66 91.855 L 156.66 91.855 L 156.66 91.855 Q 157.78 91.855 158.94 90.117 L 158.94 90.117 L 158.94 90.117 Q 160.1 88.379 160.74 86.02 L 160.74 86.02 L 160.74 86.02 Q 160.94 78.2 160.94 76.089 L 160.94 76.089 L 160.94 76.089 Q 159.3 71.744 157.06 71.744 Z  M 164.22 56.103 L 164.22 56.103 L 164.06 73.979 L 164.06 73.979 Q 164.06 84.282 164.74 98.558 L 164.74 98.558 L 164.74 98.558 Q 163.54 99.676 162.66 99.676 L 162.66 99.676 L 162.66 99.676 Q 161.78 99.676 160.98 99.427 L 160.98 99.427 L 160.86 93.469 L 160.86 93.469 Q 157.82 100.793 155.48 100.793 L 155.48 100.793 L 155.48 100.793 Q 153.14 100.793 151.92 96.138 L 151.92 96.138 L 151.92 96.138 Q 150.7 91.482 150.7 82.855 L 150.7 82.855 L 150.7 82.855 Q 150.7 74.227 152.52 69.758 L 152.52 69.758 L 152.52 69.758 Q 154.34 65.289 156.82 65.289 L 156.82 65.289 L 156.82 65.289 Q 159.3 65.289 161.1 68.268 L 161.1 68.268 L 161.1 68.268 Q 161.14 65.786 161.14 62.806 L 161.14 62.806 L 161.14 62.806 Q 161.14 59.827 161.08 57.593 L 161.08 57.593 L 161.08 57.593 Q 161.02 55.358 160.7 52.379 L 160.7 52.379 L 160.7 52.379 Q 160.14 46.544 157.78 46.544 L 157.78 46.544 L 157.78 46.544 Q 154.82 46.544 154.82 56.599 L 154.82 56.599 L 154.86 58.71 L 154.86 58.71 Q 153.98 58.958 153.22 58.958 L 153.22 58.958 L 153.22 58.958 Q 152.46 58.958 151.42 57.965 L 151.42 57.965 L 151.42 57.965 Q 151.34 55.979 151.34 55.11 L 151.34 55.11 L 151.34 55.11 Q 151.34 47.289 153.18 43.441 L 153.18 43.441 L 153.18 43.441 Q 155.02 39.592 157.96 39.592 L 157.96 39.592 L 157.96 39.592 Q 160.9 39.592 162.56 43.751 L 162.56 43.751 L 162.56 43.751 Q 164.22 47.91 164.22 56.103 Z  M 176.42 39.592 L 176.42 39.592 L 176.42 39.592 Q 178.42 39.592 179.9 41.579 L 179.9 41.579 L 179.9 39.592 L 179.9 39.592 Q 179.9 34.627 180.56 32.144 L 180.56 32.144 L 180.56 32.144 Q 181.22 29.661 182.86 29.661 L 182.86 29.661 L 182.86 29.661 Q 183.14 29.661 183.86 29.91 L 183.86 29.91 L 183.86 29.91 Q 183.94 31.896 183.94 33.944 L 183.94 33.944 L 183.94 33.944 Q 183.94 35.992 183.7 39.965 L 183.7 39.965 L 183.7 39.965 Q 183.42 39.841 182.82 39.841 L 182.82 39.841 L 182.82 39.841 Q 182.22 39.841 181.94 41.02 L 181.94 41.02 L 181.94 41.02 Q 181.66 42.199 181.62 44.93 L 181.62 44.93 L 181.46 44.806 L 181.46 44.806 Q 183.18 50.144 183.18 60.696 L 183.18 60.696 L 183.18 60.696 Q 183.18 70.379 181.94 76.834 L 181.94 76.834 L 181.94 76.834 Q 180.54 84.034 176.42 84.034 L 176.42 84.034 L 176.42 84.034 Q 174.7 84.034 173.62 82.793 L 173.62 82.793 L 173.62 82.793 Q 172.78 87.386 172.38 92.848 L 172.38 92.848 L 172.38 92.848 Q 173.06 93.22 173.82 93.22 L 173.82 93.22 L 173.82 93.22 Q 174.58 93.22 176.86 92.351 L 176.86 92.351 L 176.86 92.351 Q 179.14 91.482 180.14 91.482 L 180.14 91.482 L 180.14 91.482 Q 182.22 91.482 183.5 94.71 L 183.5 94.71 L 183.5 94.71 Q 184.78 97.938 184.78 104.641 L 184.78 104.641 L 184.78 104.641 Q 184.78 111.345 183.38 116.31 L 183.38 116.31 L 183.38 116.31 Q 180.94 125 175.78 125 L 175.78 125 L 175.78 125 Q 172.3 125 170.46 122.269 L 170.46 122.269 L 170.46 122.269 Q 168.62 119.538 168.62 112.09 L 168.62 112.09 L 168.62 112.09 Q 168.62 110.103 168.7 108.738 L 168.7 108.738 L 168.7 108.738 Q 169.54 107.745 170.44 107.745 L 170.44 107.745 L 170.44 107.745 Q 171.34 107.745 172.38 108.241 L 172.38 108.241 L 172.38 108.241 Q 172.3 109.234 172.3 111.531 L 172.3 111.531 L 172.3 111.531 Q 172.3 113.827 173.22 116 L 173.22 116 L 173.22 116 Q 174.14 118.172 176.34 118.172 L 176.34 118.172 L 176.34 118.172 Q 178.54 118.172 180.12 115.441 L 180.12 115.441 L 180.12 115.441 Q 181.7 112.71 181.7 107.248 L 181.7 107.248 L 181.7 107.248 Q 181.7 101.165 179.58 101.165 L 179.58 101.165 L 179.58 101.165 Q 178.54 101.165 176.3 101.972 L 176.3 101.972 L 176.3 101.972 Q 174.06 102.779 172.76 102.779 L 172.76 102.779 L 172.76 102.779 Q 171.46 102.779 170.6 101.103 L 170.6 101.103 L 170.6 101.103 Q 169.74 99.427 169.74 95.951 L 169.74 95.951 L 169.74 95.951 Q 169.74 89.372 171.78 79.813 L 171.78 79.813 L 171.78 79.813 Q 169.66 74.475 169.66 60.696 L 169.66 60.696 L 169.66 60.696 Q 169.66 39.592 176.42 39.592 Z  M 172.9 60.82 L 172.9 60.82 L 172.9 60.82 Q 172.9 75.469 176.42 75.469 L 176.42 75.469 L 176.42 75.469 Q 179.94 75.469 179.94 60.82 L 179.94 60.82 L 179.94 60.82 Q 179.94 46.172 176.42 46.172 L 176.42 46.172 L 176.42 46.172 Q 172.9 46.172 172.9 60.82 Z  M 201.78 68.393 L 201.78 68.393 L 201.78 68.393 Q 198.78 71.372 195.8 71.372 L 195.8 71.372 L 195.8 71.372 Q 192.82 71.372 191.34 70.751 L 191.34 70.751 L 191.34 70.751 Q 191.34 81.924 192.5 87.013 L 192.5 87.013 L 192.5 87.013 Q 193.58 91.855 195.86 91.855 L 195.86 91.855 L 195.86 91.855 Q 198.14 91.855 200.82 84.158 L 200.82 84.158 L 200.82 84.158 Q 201.98 87.882 202.3 93.965 L 202.3 93.965 L 202.3 93.965 Q 199.06 100.793 195.54 100.793 L 195.54 100.793 L 195.54 100.793 Q 191.34 100.793 189.7 92.289 L 189.7 92.289 L 189.7 92.289 Q 188.06 83.786 188.06 69.758 L 188.06 69.758 L 188.06 69.758 Q 188.06 55.73 189.88 47.661 L 189.88 47.661 L 189.88 47.661 Q 191.7 39.592 195.82 39.592 L 195.82 39.592 L 195.82 39.592 Q 198.7 39.592 200.44 44.992 L 200.44 44.992 L 200.44 44.992 Q 202.18 50.392 202.2 57.779 L 202.2 57.779 L 202.2 57.779 Q 202.22 65.165 201.78 68.393 Z  M 195.54 46.544 L 195.54 46.544 L 195.54 46.544 Q 191.86 46.544 191.38 63.551 L 191.38 63.551 L 191.38 63.551 Q 193.1 64.172 195.28 64.172 L 195.28 64.172 L 195.28 64.172 Q 197.46 64.172 198.7 62.93 L 198.7 62.93 L 198.7 62.93 Q 198.86 58.461 198.86 58.337 L 198.86 58.337 L 198.86 58.337 Q 198.86 53.496 198.06 50.02 L 198.06 50.02 L 198.06 50.02 Q 197.26 46.544 195.54 46.544 Z " fill="rgb(235,235,235)"/><g clip-path="url(#_clipPath_UwQ60LnmXBWFNQUZ0u6cBRTtA1n8mMEt)"><text transform="matrix(1,0,0,1,185,150.048)" style="font-family:'Prata';font-weight:400;font-size:16px;font-style:normal;fill:#ebebeb;stroke:none;">Shuterstock.com</text></g><defs><clipPath id="_clipPath_UwQ60LnmXBWFNQUZ0u6cBRTtA1n8mMEt"><rect x="0" y="0" width="132" height="21.68" transform="matrix(1,0,0,1,185,134.16)"/></clipPath></defs><rect x="0" y="0" width="5" height="5" transform="matrix(1,0,0,1,0,0)" fill="rgb(235,235,235)"/></g></svg>