<?xml version="1.0" encoding="UTF-8" standalone="no"?><!-- Generator: Gravit.io --><svg xmlns="http://www.w3.org/2000/svg" xmlns:xlink="http://www.w3.org/1999/xlink" style="isolation:isolate" viewBox="0 0 320 160" width="320pt" height="160pt"><defs><clipPath id="_clipPath_c6YYPLSVaymccVve7TYDSvm0UoqmQ1vd"><rect width="320" height="160"/></clipPath></defs><g clip-path="url(#_clipPath_c6YYPLSVaymccVve7TYDSvm0UoqmQ1vd)"><rect width="320" height="160" style="fill:rgb(159,148,148)" fill-opacity="0"/><path d=" M 140.501 125 C 142.82 136.405 152.914 145 165 145 C 165 150.519 169.481 155 175 155 L 175 155 L 285 155 L 285 155 C 290.519 155 295 150.519 295 145 C 295 139.481 290.519 135 285 135 L 285 135 L 280 135 L 280 135 L 280 134.573 C 282.912 133.542 285 130.763 285 127.5 C 285 126.622 284.849 125.779 284.564 125 L 290 125 L 290 125 L 290 125 C 303.798 125 315 113.798 315 100 C 315 86.202 303.798 75 290 75 L 290 75 L 290 75 C 290 61.202 278.798 50 265 50 L 265 50 C 265 38.962 256.038 30 245 30 L 245 30 L 240 30 L 240 30 C 240 16.202 228.798 5 215 5 L 215 5 L 215 5 L 45 5 L 45 85 L 72.083 85 C 75.944 93.826 84.757 100 95 100 L 95 100 L 95 100 L 97.5 100 L 97.5 100 L 97.5 100 C 97.5 112.954 107.374 123.62 120 124.876 L 120 125 L 122.5 125 L 140.501 125 Z " fill="rgb(97,108,189)"/><g><circle vector-effect="non-scaling-stroke" cx="44.99999999999999" cy="44.99999999999999" r="40" fill="rgb(0,149,59)"/><g clip-path="url(#_clipPath_CE5wh0vle64zmUBD4ZqueJ5M3mGhr2MW)"><text transform="matrix(1,0,0,1,100.615,73.789)" style="font-family:'Quando';font-weight:400;font-size:24px;font-style:normal;fill:#ebebeb;stroke:none;">Commisions </text></g><defs><clipPath id="_clipPath_CE5wh0vle64zmUBD4ZqueJ5M3mGhr2MW"><rect x="0" y="0" width="230" height="30" transform="matrix(1,0,0,1,70,50)"/></clipPath></defs><g clip-path="url(#_clipPath_pTxgyUNtSz2dwGQbxbQLAMij1wIEpdEn)"><text transform="matrix(1,0,0,1,124.209,108.789)" style="font-family:'Quando';font-weight:400;font-size:24px;font-style:normal;fill:#ebebeb;stroke:none;">and Reviews </text></g><defs><clipPath id="_clipPath_pTxgyUNtSz2dwGQbxbQLAMij1wIEpdEn"><rect x="0" y="0" width="220" height="35" transform="matrix(1,0,0,1,100,85)"/></clipPath></defs><g clip-path="url(#_clipPath_XvZNaRFhtQVaXdgovPsnUeqWODdsb9uw)"><text transform="matrix(1,0,0,1,81.281,36.719)" style="font-family:'Quando';font-weight:400;font-size:32px;font-style:normal;fill:#ebebeb;stroke:none;">Services</text></g><defs><clipPath id="_clipPath_XvZNaRFhtQVaXdgovPsnUeqWODdsb9uw"><rect x="0" y="0" width="145" height="65" transform="matrix(1,0,0,1,80,5)"/></clipPath></defs><path d=" M 50 35 L 40 35 Q 40 30.307 40 30 L 40 30 L 40 30 C 40 27.24 42.24 25 45 25 L 45 25 L 60 25 L 60 15 L 45 15 L 45 15 C 36.721 15 30 21.721 30 30 L 30 35 L 20 35 L 20 45 L 30 45 L 30 75 L 40 75 Q 40 46.84 40 45 L 50 45 L 50 75 L 60 75 L 60 45 L 60 45 L 60 35 L 60 35 L 50 35 Z " fill="rgb(255,255,255)"/><g clip-path="url(#_clipPath_PwRj5v1ZGBtWegT1aFuRayuiqqHb3PvR)"><text transform="matrix(1,0,0,1,167.5,147.412)" style="font-family:'Quando';font-weight:400;font-size:10px;font-style:normal;fill:#ebebeb;stroke:none;">Fiverr.com/santiagolds</text></g><defs><clipPath id="_clipPath_PwRj5v1ZGBtWegT1aFuRayuiqqHb3PvR"><rect x="0" y="0" width="125" height="12.5" transform="matrix(1,0,0,1,167.5,137.5)"/></clipPath></defs></g></g></svg>