<?xml version="1.0" encoding="UTF-8" standalone="no"?><!-- Generator: Gravit.io --><svg xmlns="http://www.w3.org/2000/svg" xmlns:xlink="http://www.w3.org/1999/xlink" style="isolation:isolate" viewBox="0 0 320 160" width="320pt" height="160pt"><defs><clipPath id="_clipPath_Rt4lyMql8wSCLfsKxAqSBaVRGsemJj3h"><rect width="320" height="160"/></clipPath></defs><g clip-path="url(#_clipPath_Rt4lyMql8wSCLfsKxAqSBaVRGsemJj3h)"><rect width="320" height="160" style="fill:rgb(250,92,92)" fill-opacity="0"/><path d=" M 10 65 L 10 55 C 10 52.24 12.24 50 15 50 L 125 50 C 127.76 50 130 52.24 130 55 L 110 55 C 107.24 55 103.294 56.452 101.192 58.241 Q 93.25 65 75 65 Q 53.772 65 10 65 C 10 65 10 65 10 65 Z " fill-rule="evenodd" fill="rgb(0,0,0)"/><g><path d=" M 150.313 110.938 L 144.063 110.938 L 144.063 89.063 L 150.313 89.063 L 150.313 95.313 L 162.813 95.313 L 162.813 98.438 L 165.938 98.438 L 165.938 110.938 L 159.688 110.938 L 159.688 98.438 L 150.313 98.438 L 150.313 110.938 Z  M 187.813 110.938 L 172.188 110.938 L 172.188 107.813 L 169.063 107.813 L 169.063 98.438 L 172.188 98.438 L 172.188 95.313 L 187.813 95.313 L 187.813 98.438 L 190.938 98.438 L 190.938 107.813 L 187.813 107.813 L 187.813 110.938 Z  M 175.313 98.438 L 175.313 107.813 L 184.688 107.813 L 184.688 98.438 L 175.313 98.438 Z  M 200.313 95.313 L 200.313 107.813 L 203.438 107.813 L 203.438 110.938 L 197.188 110.938 L 197.188 107.813 L 194.063 107.813 L 194.063 95.313 L 200.313 95.313 Z  M 203.438 95.313 L 206.563 95.313 L 206.563 107.813 L 203.438 107.813 L 203.438 95.313 Z  M 209.688 95.313 L 215.938 95.313 L 215.938 107.813 L 212.813 107.813 L 212.813 110.938 L 206.563 110.938 L 206.563 107.813 L 209.688 107.813 L 209.688 95.313 Z  M 240.938 110.938 L 222.188 110.938 L 222.188 107.813 L 219.063 107.813 L 219.063 98.438 L 222.188 98.438 L 222.188 95.313 L 240.938 95.313 L 240.938 98.438 L 225.313 98.438 L 225.313 107.813 L 240.938 107.813 L 240.938 110.938 Z  M 265.938 110.938 L 247.188 110.938 L 247.188 107.813 L 244.063 107.813 L 244.063 104.688 L 247.188 104.688 L 247.188 101.563 L 259.688 101.563 L 259.688 98.438 L 247.188 98.438 L 247.188 95.313 L 262.813 95.313 L 262.813 98.438 L 265.938 98.438 L 265.938 110.938 Z  M 250.313 104.688 L 250.313 107.813 L 259.688 107.813 L 259.688 104.688 L 250.313 104.688 Z  M 287.813 110.938 L 269.063 110.938 L 269.063 107.813 L 284.688 107.813 L 284.688 104.688 L 272.188 104.688 L 272.188 101.563 L 269.063 101.563 L 269.063 98.438 L 272.188 98.438 L 272.188 95.313 L 287.813 95.313 L 287.813 98.438 L 275.313 98.438 L 275.313 101.563 L 287.813 101.563 L 287.813 104.688 L 290.938 104.688 L 290.938 107.813 L 287.813 107.813 L 287.813 110.938 Z  M 312.813 110.938 L 297.188 110.938 L 297.188 107.813 L 294.063 107.813 L 294.063 98.438 L 297.188 98.438 L 297.188 95.313 L 312.813 95.313 L 312.813 98.438 L 315.938 98.438 L 315.938 104.688 L 300.313 104.688 L 300.313 107.813 L 312.813 107.813 L 312.813 110.938 Z  M 300.313 98.438 L 300.313 101.563 L 309.688 101.563 L 309.688 98.438 L 300.313 98.438 Z " fill="rgb(0,0,0)"/><path d=" M 5 135 L 5 75 C 5 72.24 7.24 70 10 70 Q 53.772 70 75 70 Q 93.25 70 101.192 63.241 C 103.294 61.452 107.24 60 110 60 L 130 60 C 132.76 60 135 62.24 135 65 L 135 135 C 135 137.76 132.76 140 130 140 L 10 140 C 7.24 140 5 137.76 5 135 Z  M 122.063 128 L 82.063 128 L 82.063 120 L 74.063 120 L 74.063 112 L 90.063 112 L 90.063 120 L 114.063 120 L 114.063 104 L 82.063 104 L 82.063 96 L 74.063 96 L 74.063 80 L 82.063 80 L 82.063 72 L 122.063 72 L 122.063 80 L 130.063 80 L 130.063 88 L 114.063 88 L 114.063 80 L 90.063 80 L 90.063 96 L 122.063 96 L 122.063 104 L 130.063 104 L 130.063 120 L 122.063 120 L 122.063 128 Z " fill-rule="evenodd" fill="rgb(0,0,0)" vector-effect="non-scaling-stroke" stroke-width="1" stroke="rgb(0,0,0)" stroke-linejoin="miter" stroke-linecap="square" stroke-miterlimit="3"/></g><path d=" M 35 45 L 35 19 C 35 16.792 36.792 15 39 15 L 101 15 C 103.208 15 105 16.792 105 19 L 105 45 L 95 45 L 95 29 C 95 26.792 93.208 25 91 25 L 59 25 C 56.792 25 55 26.792 55 29 L 55 45 L 45 45 L 45 41 C 45 40.448 44.683 39.683 44.293 39.293 L 40.707 35.707 C 40.317 35.317 40 35.448 40 36 L 40 45 L 35 45 Z  M 44.293 34.293 L 40.707 30.707 C 40.317 30.317 40 29.552 40 29 L 40 26 C 40 25.448 40.317 25.317 40.707 25.707 L 44.293 29.293 C 44.683 29.683 45 30.448 45 31 L 45 34 C 45 34.552 44.683 34.683 44.293 34.293 Z " fill-rule="evenodd" fill="rgb(0,0,0)"/></g></svg>