<?xml version="1.0" standalone="no"?>
<!-- Generator: Gravit.io -->
<svg xmlns="http://www.w3.org/2000/svg" xmlns:xlink="http://www.w3.org/1999/xlink" style="isolation:isolate" viewBox="0 0 300 300" width="300" height="300">
<defs>
<clipPath id="_clipPath_bgj7IPjSNkZs1kEkFJLt4gdEhTcuCuuy"><rect width="300" height="300"/>
</clipPath></defs><g clip-path="url(#_clipPath_bgj7IPjSNkZs1kEkFJLt4gdEhTcuCuuy)"
><g><circle vector-effect="non-scaling-stroke" cx="149.99999999999997" cy="150" r="150" fill="rgb(185,185,185)"/>
<clipPath id="_clipPath_0PPcGk5AgyYYuU4WnxHi2mlOcJtf1VTs"><circle vector-effect="non-scaling-stroke" cx="149.99999999999997" cy="150" r="150" fill="rgb(185,185,185)"/>
</clipPath><g clip-path="url(#_clipPath_0PPcGk5AgyYYuU4WnxHi2mlOcJtf1VTs)"><rect x="-60" y="-55" width="210" height="410" transform="matrix(1,0,0,1,0,0)" fill="rgb(70,70,70)"/></g><path d=" M 265 90 C 251 47.5 174.25 32.75 170 55 L 170 80 Q 222.564 79.476 235 110 C 243.533 104.478 272.531 163.201 270 180 C 272.761 184.138 282 122.5 265 90 Z " fill="rgb(235,235,235)"/><path d=" M 250 155 C 254.75 161.875 260 156.5 265 165 C 263.75 156.25 254.75 157.75 255 140 C 260.237 150.931 276.913 155.941 275 165 C 278.919 157.691 259.464 149.744 285 145 C 272.469 150.375 285.097 166.225 275 175 C 273.776 176.823 272.274 174.386 270 175 C 268.156 169.594 252.406 173.438 250 155 Z " fill="rgb(0,0,0)"/><circle vector-effect="non-scaling-stroke" cx="270" cy="180.20878645202393" r="10" fill="rgb(235,235,235)"/><path d=" M 35 89.791 C 49 47.291 125.75 32.541 130 54.791 L 130 79.791 Q 77.436 79.268 65 109.791 C 56.467 104.269 27.469 162.992 30 179.791 C 27.239 183.93 18 122.291 35 89.791 Z " fill="rgb(0,0,0)"/><path d=" M 50 154.791 C 45.25 161.666 40 156.291 35 164.791 C 36.25 156.041 45.25 157.541 45 139.791 C 39.763 150.722 23.087 155.732 25 164.791 C 21.081 157.482 40.536 149.536 15 144.791 C 27.531 150.166 14.903 166.016 25 174.791 C 26.224 176.614 27.726 174.177 30 174.791 C 31.844 169.385 47.594 173.229 50 154.791 Z " fill="rgb(235,235,235)"/><circle vector-effect="non-scaling-stroke" cx="29.99999999999997" cy="180" r="9.999999999999993" fill="rgb(0,0,0)"/><path d=" M 150 60 C 162.493 60 168.313 47.25 185 45 C 207.106 45.848 229.922 66.927 240 100 Q 240 133.115 150 160 Q 150 160 150 160 Q 150 160 150 160 Q 60 133.115 60 100 C 70.078 66.927 92.894 45.848 115 45 C 131.688 47.25 137.507 60 150 60 C 150 60 150 60 150 60 Z " fill="rgb(0,0,0)"/><clipPath id="_clipPath_EB464p4Wuw8vZl19G0lNhVDCvJdxmupy"><path d=" M 150 60 C 162.493 60 168.313 47.25 185 45 C 207.106 45.848 229.922 66.927 240 100 Q 240 133.115 150 160 Q 150 160 150 160 Q 150 160 150 160 Q 60 133.115 60 100 C 70.078 66.927 92.894 45.848 115 45 C 131.688 47.25 137.507 60 150 60 C 150 60 150 60 150 60 Z " fill="rgb(0,0,0)"/></clipPath><g clip-path="url(#_clipPath_EB464p4Wuw8vZl19G0lNhVDCvJdxmupy)"><rect x="40" y="15" width="110" height="150" transform="matrix(1,0,0,1,0,0)" fill="rgb(255,255,255)"/></g><path d=" M 150 110 C 150 110 150 110 150 110 L 70 110 Q 80 200.683 80 220 C 80 258.634 134.333 290 150 290 L 150 290 C 165.667 290 220 258.634 220 220 Q 220 220.683 230 110 L 150 110 L 150 110 Z " fill="rgb(255,255,255)"/><clipPath id="_clipPath_98i5nHlHLih1w3nNCxnKnYbaagX7HNFp"><path d=" M 150 110 C 150 110 150 110 150 110 L 70 110 Q 80 200.683 80 220 C 80 258.634 134.333 290 150 290 L 150 290 C 165.667 290 220 258.634 220 220 Q 220 220.683 230 110 L 150 110 L 150 110 Z " fill="rgb(255,255,255)"/></clipPath><g clip-path="url(#_clipPath_98i5nHlHLih1w3nNCxnKnYbaagX7HNFp)"><path d=" M 100 220 Q 133.709 260 150 260 Q 166.291 260 200 220 Q 164.633 240 150 240 Q 135.367 240 100 220 Z " fill="rgb(0,0,0)"/><rect x="150" y="70" width="100" height="250" transform="matrix(1,0,0,1,0,0)" fill="rgb(0,0,0)"/><clipPath id="_clipPath_UQACVj0JwJBpFwVkXmTKQlL2Idn97vfa"><rect x="150" y="70" width="100" height="250" transform="matrix(1,0,0,1,0,0)" fill="rgb(0,0,0)"/></clipPath><g clip-path="url(#_clipPath_UQACVj0JwJBpFwVkXmTKQlL2Idn97vfa)"><path d=" M 100 220 Q 133.709 260 150 260 Q 166.291 260 200 220 Q 164.633 240 150 240 Q 135.367 240 100 220 Z " fill="rgb(255,255,255)"/></g></g><circle vector-effect="non-scaling-stroke" cx="184.99999999999991" cy="174.99999999999994" r="15" fill="rgb(235,235,235)"/><path d=" M 95 180 C 95 174.481 103.962 165 115 165 C 126.038 165 135 174.481 135 180 C 135 185.519 126.038 180 115 180 C 103.962 180 95 185.519 95 180 Z " fill="rgb(0,0,0)"/><path d=" M 150 145 Q 121.818 145 74.977 140.48 C 72.23 140.215 69.683 137.782 69.293 135.05 L 65.707 109.95 C 65.317 107.218 67.231 105.209 69.978 105.467 Q 118.313 110 150 110 Q 181.687 110 230.022 105.467 C 232.769 105.209 234.683 107.218 234.293 109.95 L 230.707 135.05 C 230.317 137.782 227.77 140.215 225.023 140.48 Q 178.182 145 150 145 Z " fill="rgb(0,0,0)"/><clipPath id="_clipPath_CfDhmz76UqzrBmUirWT78OdpC6SMoA7R"><path d=" M 150 145 Q 121.818 145 74.977 140.48 C 72.23 140.215 69.683 137.782 69.293 135.05 L 65.707 109.95 C 65.317 107.218 67.231 105.209 69.978 105.467 Q 118.313 110 150 110 Q 181.687 110 230.022 105.467 C 232.769 105.209 234.683 107.218 234.293 109.95 L 230.707 135.05 C 230.317 137.782 227.77 140.215 225.023 140.48 Q 178.182 145 150 145 Z " fill="rgb(0,0,0)"/></clipPath><g clip-path="url(#_clipPath_CfDhmz76UqzrBmUirWT78OdpC6SMoA7R)"><rect x="150" y="65" width="95" height="95" transform="matrix(1,0,0,1,0,0)" fill="rgb(235,235,235)"/>
</g></g></g></svg>