<?xml version="1.0" standalone="no"?><!-- Generator: Gravit.io --><svg xmlns="http://www.w3.org/2000/svg" xmlns:xlink="http://www.w3.org/1999/xlink" style="isolation:isolate" viewBox="0 0 560 400" width="560" height="400"><defs><clipPath id="_clipPath_wBCnWk5nkiJHb2FW9AwcWP2B1YNiRRYS"><rect width="560" height="400"/></clipPath></defs><g clip-path="url(#_clipPath_wBCnWk5nkiJHb2FW9AwcWP2B1YNiRRYS)"><g><circle vector-effect="non-scaling-stroke" cx="270" cy="230.00000000000003" r="150.00000000000006" fill="rgb(97,35,164)"/><clipPath id="_clipPath_moNJYeDkJv4OeDL2BiOoDMEi7iNgKSVD"><circle vector-effect="non-scaling-stroke" cx="270" cy="230.00000000000003" r="150.00000000000006" fill="rgb(97,35,164)"/></clipPath><g clip-path="url(#_clipPath_moNJYeDkJv4OeDL2BiOoDMEi7iNgKSVD)"><circle vector-effect="non-scaling-stroke" cx="269.9999999999999" cy="230.00000000000003" r="139.99999999999994" fill="rgb(116,38,200)"/><ellipse vector-effect="non-scaling-stroke" cx="270.0000000000001" cy="90" rx="40.00000000000006" ry="20" fill="rgb(119,91,149)"/></g><circle vector-effect="non-scaling-stroke" cx="270.00000000000006" cy="230.00000000000006" r="114.99999999999993" fill="rgb(235,235,235)"/><clipPath id="_clipPath_S9RtBOzpJfmVYQkXubyFYgCwW474qpV9"><circle vector-effect="non-scaling-stroke" cx="270.00000000000006" cy="230.00000000000006" r="114.99999999999993" fill="rgb(235,235,235)"/></clipPath><g clip-path="url(#_clipPath_S9RtBOzpJfmVYQkXubyFYgCwW474qpV9)"><circle vector-effect="non-scaling-stroke" cx="270.00000000000017" cy="230.00000000000009" r="110.00000000000004" fill="rgb(213,201,201)"/></g><path d=" M 230 90 L 230 90 C 230 95.519 247.923 100 270 100 C 292.077 100 310 95.519 310 90 L 310 90 Q 310 89.145 290 50 Q 283.875 39.844 270 40 Q 256.125 40.156 250 50 Q 230 89.145 230 90 Z " fill="rgb(204,204,204)"/><clipPath id="_clipPath_qNwbjsl2H4XarnLq50413TPqLCmJUX1Y"><path d=" M 230 90 L 230 90 C 230 95.519 247.923 100 270 100 C 292.077 100 310 95.519 310 90 L 310 90 Q 310 89.145 290 50 Q 283.875 39.844 270 40 Q 256.125 40.156 250 50 Q 230 89.145 230 90 Z " fill="rgb(204,204,204)"/></clipPath><g clip-path="url(#_clipPath_qNwbjsl2H4XarnLq50413TPqLCmJUX1Y)"><ellipse vector-effect="non-scaling-stroke" cx="270.0000000000001" cy="50" rx="20" ry="10" fill="rgb(210,194,194)"/></g></g></g></svg>